<svg width="284" height="37" viewBox="0 0 284 37" fill="none" xmlns="http://www.w3.org/2000/svg">
<path d="M20.6947 12C20.6038 10.8636 20.1777 9.97727 19.4163 9.34091C18.6663 8.70454 17.5243 8.38636 15.9902 8.38636C15.0129 8.38636 14.2118 8.50568 13.5868 8.74432C12.9731 8.97159 12.5186 9.28409 12.2231 9.68182C11.9277 10.0795 11.7743 10.5341 11.7629 11.0455C11.7402 11.4659 11.8141 11.8466 11.9845 12.1875C12.1663 12.517 12.4504 12.8182 12.8368 13.0909C13.2231 13.3523 13.7175 13.5909 14.3197 13.8068C14.922 14.0227 15.6379 14.2159 16.4675 14.3864L19.3311 15C21.2629 15.4091 22.9163 15.9489 24.2913 16.6193C25.6663 17.2898 26.7913 18.0795 27.6663 18.9886C28.5413 19.8864 29.1834 20.8977 29.5925 22.0227C30.0129 23.1477 30.2288 24.375 30.2402 25.7045C30.2288 28 29.655 29.9432 28.5186 31.5341C27.3822 33.125 25.7572 34.3352 23.6436 35.1648C21.5413 35.9943 19.0129 36.4091 16.0584 36.4091C13.0243 36.4091 10.3766 35.9602 8.11519 35.0625C5.86519 34.1648 4.11519 32.7841 2.86519 30.9205C1.62656 29.0455 1.00156 26.6477 0.990193 23.7273H9.99019C10.047 24.7955 10.3141 25.6932 10.7913 26.4205C11.2686 27.1477 11.9391 27.6989 12.8027 28.0739C13.6777 28.4489 14.7175 28.6364 15.922 28.6364C16.9334 28.6364 17.78 28.5114 18.4618 28.2614C19.1436 28.0114 19.6606 27.6648 20.0129 27.2216C20.3652 26.7784 20.547 26.2727 20.5584 25.7045C20.547 25.1705 20.3709 24.7045 20.03 24.3068C19.7004 23.8977 19.155 23.5341 18.3936 23.2159C17.6322 22.8864 16.6038 22.5795 15.3084 22.2955L11.8311 21.5455C8.74019 20.875 6.30269 19.7557 4.5186 18.1875C2.74587 16.608 1.86519 14.4545 1.87656 11.7273C1.86519 9.51136 2.4561 7.57386 3.64928 5.91477C4.85383 4.24432 6.5186 2.94318 8.6436 2.01136C10.78 1.07954 13.2288 0.613635 15.9902 0.613635C18.8084 0.613635 21.2459 1.08523 23.3027 2.02841C25.3595 2.97159 26.9447 4.30114 28.0584 6.01705C29.1834 7.72159 29.7516 9.71591 29.7629 12H20.6947ZM40.5108 21.2727V36H31.1017V9.81818H40.0335V14.7955H40.3062C40.8744 13.1364 41.8744 11.8352 43.3062 10.892C44.7494 9.94886 46.4312 9.47727 48.3517 9.47727C50.2039 9.47727 51.8119 9.90341 53.1755 10.7557C54.5505 11.5966 55.613 12.7557 56.363 14.233C57.1244 15.7102 57.4994 17.3977 57.488 19.2955V36H48.0789V21.2727C48.0903 19.9773 47.7608 18.9602 47.0903 18.2216C46.4312 17.483 45.5108 17.1136 44.3289 17.1136C43.5562 17.1136 42.8801 17.2841 42.3005 17.625C41.7324 17.9545 41.2949 18.4318 40.988 19.0568C40.6812 19.6705 40.5221 20.4091 40.5108 21.2727ZM71.7984 36.4773C69.0029 36.4773 66.5938 35.9432 64.5711 34.875C62.5597 33.7955 61.0086 32.25 59.9177 30.2386C58.8381 28.2159 58.2984 25.7955 58.2984 22.9773C58.2984 20.2727 58.8438 17.9091 59.9347 15.8864C61.0256 13.8636 62.5654 12.2898 64.5541 11.1648C66.5427 10.0398 68.8893 9.47727 71.5938 9.47727C73.5711 9.47727 75.3609 9.78409 76.9631 10.3977C78.5654 11.0114 79.9347 11.9034 81.0711 13.0739C82.2075 14.233 83.0825 15.642 83.6961 17.3011C84.3097 18.9602 84.6166 20.8295 84.6166 22.9091V25.0909H61.2302V19.9091H75.9575C75.9461 19.1591 75.7529 18.5 75.3779 17.9318C75.0143 17.3523 74.52 16.9034 73.895 16.5852C73.2813 16.2557 72.5825 16.0909 71.7984 16.0909C71.037 16.0909 70.3381 16.2557 69.7018 16.5852C69.0654 16.9034 68.5541 17.3466 68.1677 17.9148C67.7927 18.483 67.5938 19.1477 67.5711 19.9091V25.5C67.5711 26.3409 67.7472 27.0909 68.0995 27.75C68.4518 28.4091 68.9575 28.9261 69.6166 29.3011C70.2756 29.6761 71.0711 29.8636 72.0029 29.8636C72.6506 29.8636 73.2416 29.7727 73.7756 29.5909C74.3211 29.4091 74.787 29.1477 75.1734 28.8068C75.5597 28.4545 75.8438 28.0341 76.0256 27.5455H84.6166C84.3211 29.3636 83.6222 30.9432 82.52 32.2841C81.4177 33.6136 79.9575 34.6477 78.1393 35.3864C76.3325 36.1136 74.2188 36.4773 71.7984 36.4773ZM92.8715 36.4091C91.201 36.4091 89.7238 36.1364 88.4397 35.5909C87.167 35.0341 86.167 34.1932 85.4397 33.0682C84.7124 31.9432 84.3488 30.5114 84.3488 28.7727C84.3488 27.3409 84.5931 26.1193 85.0817 25.108C85.5704 24.0852 86.2522 23.25 87.1272 22.6023C88.0022 21.9545 89.0192 21.4602 90.1783 21.1193C91.3488 20.7784 92.6101 20.5568 93.9624 20.4545C95.4283 20.3409 96.6045 20.2045 97.4908 20.0455C98.3885 19.875 99.0363 19.642 99.434 19.3466C99.8317 19.0398 100.031 18.6364 100.031 18.1364V18.0682C100.031 17.3864 99.7692 16.8636 99.2465 16.5C98.7238 16.1364 98.0533 15.9545 97.2351 15.9545C96.3374 15.9545 95.6045 16.1534 95.0363 16.5511C94.4795 16.9375 94.1442 17.5341 94.0306 18.3409H85.3715C85.4851 16.75 85.9908 15.2841 86.8885 13.9432C87.7976 12.5909 89.1215 11.5114 90.8601 10.7045C92.5988 9.88636 94.7692 9.47727 97.3715 9.47727C99.2465 9.47727 100.928 9.69886 102.417 10.142C103.906 10.5739 105.173 11.1818 106.218 11.9659C107.264 12.7386 108.059 13.6477 108.604 14.6932C109.161 15.7273 109.44 16.8523 109.44 18.0682V36H100.644V32.3182H100.44C99.917 33.2955 99.2806 34.0852 98.5306 34.6875C97.792 35.2898 96.9454 35.7273 95.9908 36C95.0476 36.2727 94.0079 36.4091 92.8715 36.4091ZM95.9397 30.4773C96.6556 30.4773 97.326 30.3295 97.951 30.0341C98.5874 29.7386 99.1045 29.3125 99.5022 28.7557C99.8999 28.1989 100.099 27.5227 100.099 26.7273V24.5455C99.8488 24.6477 99.5817 24.7443 99.2976 24.8352C99.0249 24.9261 98.7295 25.0114 98.4113 25.0909C98.1045 25.1705 97.7749 25.2443 97.4226 25.3125C97.0817 25.3807 96.7238 25.4432 96.3488 25.5C95.6215 25.6136 95.0249 25.8011 94.559 26.0625C94.1045 26.3125 93.7635 26.625 93.5363 27C93.3204 27.3636 93.2124 27.7727 93.2124 28.2273C93.2124 28.9545 93.4681 29.5114 93.9795 29.8977C94.4908 30.2841 95.1442 30.4773 95.9397 30.4773ZM119.51 29.7955L119.578 18.6136H120.805L127.146 9.81818H137.715L127.078 23.5227H124.419L119.51 29.7955ZM111.055 36V1.09091H120.465V36H111.055ZM127.215 36L121.215 25.6364L127.351 18.9545L137.987 36H127.215ZM148.752 36.4773C145.957 36.4773 143.548 35.9432 141.525 34.875C139.513 33.7955 137.962 32.25 136.871 30.2386C135.792 28.2159 135.252 25.7955 135.252 22.9773C135.252 20.2727 135.798 17.9091 136.888 15.8864C137.979 13.8636 139.519 12.2898 141.508 11.1648C143.496 10.0398 145.843 9.47727 148.548 9.47727C150.525 9.47727 152.315 9.78409 153.917 10.3977C155.519 11.0114 156.888 11.9034 158.025 13.0739C159.161 14.233 160.036 15.642 160.65 17.3011C161.263 18.9602 161.57 20.8295 161.57 22.9091V25.0909H138.184V19.9091H152.911C152.9 19.1591 152.707 18.5 152.332 17.9318C151.968 17.3523 151.474 16.9034 150.849 16.5852C150.235 16.2557 149.536 16.0909 148.752 16.0909C147.991 16.0909 147.292 16.2557 146.656 16.5852C146.019 16.9034 145.508 17.3466 145.121 17.9148C144.746 18.483 144.548 19.1477 144.525 19.9091V25.5C144.525 26.3409 144.701 27.0909 145.053 27.75C145.406 28.4091 145.911 28.9261 146.57 29.3011C147.229 29.6761 148.025 29.8636 148.957 29.8636C149.604 29.8636 150.195 29.7727 150.729 29.5909C151.275 29.4091 151.741 29.1477 152.127 28.8068C152.513 28.4545 152.798 28.0341 152.979 27.5455H161.57C161.275 29.3636 160.576 30.9432 159.474 32.2841C158.371 33.6136 156.911 34.6477 155.093 35.3864C153.286 36.1136 151.173 36.4773 148.752 36.4773ZM162.53 36V9.81818H171.666V14.7955H171.939C172.416 12.9545 173.172 11.608 174.206 10.7557C175.251 9.90341 176.473 9.47727 177.871 9.47727C178.28 9.47727 178.683 9.51136 179.081 9.57955C179.49 9.63636 179.882 9.72159 180.257 9.83523V17.8636C179.791 17.7045 179.217 17.5852 178.535 17.5057C177.854 17.4261 177.268 17.3864 176.78 17.3864C175.859 17.3864 175.03 17.5966 174.291 18.017C173.564 18.4261 172.99 19.0057 172.57 19.7557C172.149 20.4943 171.939 21.3636 171.939 22.3636V36H162.53ZM180.326 36V1.09091H189.803V28.3636H203.917V36H180.326ZM212.3 36.4091C210.629 36.4091 209.152 36.1364 207.868 35.5909C206.595 35.0341 205.595 34.1932 204.868 33.0682C204.141 31.9432 203.777 30.5114 203.777 28.7727C203.777 27.3409 204.021 26.1193 204.51 25.108C204.998 24.0852 205.68 23.25 206.555 22.6023C207.43 21.9545 208.447 21.4602 209.606 21.1193C210.777 20.7784 212.038 20.5568 213.391 20.4545C214.856 20.3409 216.033 20.2045 216.919 20.0455C217.817 19.875 218.464 19.642 218.862 19.3466C219.26 19.0398 219.459 18.6364 219.459 18.1364V18.0682C219.459 17.3864 219.197 16.8636 218.675 16.5C218.152 16.1364 217.481 15.9545 216.663 15.9545C215.766 15.9545 215.033 16.1534 214.464 16.5511C213.908 16.9375 213.572 17.5341 213.459 18.3409H204.8C204.913 16.75 205.419 15.2841 206.317 13.9432C207.226 12.5909 208.55 11.5114 210.288 10.7045C212.027 9.88636 214.197 9.47727 216.8 9.47727C218.675 9.47727 220.356 9.69886 221.845 10.142C223.334 10.5739 224.601 11.1818 225.646 11.9659C226.692 12.7386 227.487 13.6477 228.033 14.6932C228.589 15.7273 228.868 16.8523 228.868 18.0682V36H220.072V32.3182H219.868C219.345 33.2955 218.709 34.0852 217.959 34.6875C217.22 35.2898 216.373 35.7273 215.419 36C214.476 36.2727 213.436 36.4091 212.3 36.4091ZM215.368 30.4773C216.084 30.4773 216.754 30.3295 217.379 30.0341C218.016 29.7386 218.533 29.3125 218.93 28.7557C219.328 28.1989 219.527 27.5227 219.527 26.7273V24.5455C219.277 24.6477 219.01 24.7443 218.726 24.8352C218.453 24.9261 218.158 25.0114 217.839 25.0909C217.533 25.1705 217.203 25.2443 216.851 25.3125C216.51 25.3807 216.152 25.4432 215.777 25.5C215.05 25.6136 214.453 25.8011 213.987 26.0625C213.533 26.3125 213.192 26.625 212.964 27C212.748 27.3636 212.641 27.7727 212.641 28.2273C212.641 28.9545 212.896 29.5114 213.408 29.8977C213.919 30.2841 214.572 30.4773 215.368 30.4773ZM230.347 36V1.09091H239.756V14.3864H239.893C240.234 13.5 240.734 12.6875 241.393 11.9489C242.052 11.1989 242.87 10.6023 243.847 10.1591C244.824 9.70455 245.961 9.47727 247.256 9.47727C248.984 9.47727 250.626 9.9375 252.182 10.858C253.751 11.7784 255.023 13.2273 256.001 15.2045C256.989 17.1818 257.484 19.75 257.484 22.9091C257.484 25.9318 257.012 28.4375 256.069 30.4261C255.137 32.4148 253.887 33.8977 252.319 34.875C250.762 35.8523 249.052 36.3409 247.188 36.3409C245.961 36.3409 244.864 36.142 243.898 35.7443C242.944 35.3352 242.126 34.7841 241.444 34.0909C240.773 33.3864 240.256 32.5909 239.893 31.7045H239.688V36H230.347ZM239.552 22.9091C239.552 24.1818 239.717 25.2841 240.046 26.2159C240.387 27.1364 240.864 27.8523 241.478 28.3636C242.103 28.8636 242.847 29.1136 243.711 29.1136C244.574 29.1136 245.307 28.8693 245.91 28.3807C246.523 27.8807 246.989 27.1705 247.307 26.25C247.637 25.3182 247.802 24.2045 247.802 22.9091C247.802 21.6136 247.637 20.5057 247.307 19.5852C246.989 18.6534 246.523 17.9432 245.91 17.4545C245.307 16.9545 244.574 16.7045 243.711 16.7045C242.847 16.7045 242.103 16.9545 241.478 17.4545C240.864 17.9432 240.387 18.6534 240.046 19.5852C239.717 20.5057 239.552 21.6136 239.552 22.9091ZM282.473 18.3409H273.814C273.768 17.8068 273.581 17.3466 273.251 16.9602C272.922 16.5739 272.496 16.2784 271.973 16.0739C271.462 15.858 270.893 15.75 270.268 15.75C269.462 15.75 268.768 15.8977 268.189 16.1932C267.609 16.4886 267.325 16.9091 267.337 17.4545C267.325 17.8409 267.49 18.1989 267.831 18.5284C268.183 18.858 268.859 19.1136 269.859 19.2955L275.177 20.25C277.859 20.7386 279.854 21.5625 281.16 22.7216C282.479 23.8693 283.143 25.4091 283.155 27.3409C283.143 29.2045 282.587 30.8239 281.484 32.1989C280.393 33.5625 278.899 34.6193 277.001 35.3693C275.115 36.108 272.962 36.4773 270.541 36.4773C266.541 36.4773 263.41 35.6591 261.149 34.0227C258.899 32.3864 257.643 30.2273 257.382 27.5455H266.723C266.848 28.375 267.257 29.017 267.95 29.4716C268.655 29.9148 269.541 30.1364 270.609 30.1364C271.473 30.1364 272.183 29.9886 272.74 29.6932C273.308 29.3977 273.598 28.9773 273.609 28.4318C273.598 27.9318 273.348 27.5341 272.859 27.2386C272.382 26.9432 271.632 26.7045 270.609 26.5227L265.973 25.7045C263.302 25.2386 261.302 24.3523 259.973 23.0455C258.643 21.7386 257.984 20.0568 257.996 18C257.984 16.1818 258.462 14.642 259.427 13.3807C260.405 12.108 261.797 11.142 263.604 10.483C265.422 9.8125 267.575 9.47727 270.064 9.47727C273.848 9.47727 276.831 10.2614 279.013 11.8295C281.206 13.3977 282.359 15.5682 282.473 18.3409Z" fill="#BA5C3C"/>
</svg>
